<svg width="24" height="24" viewBox="0 0 24 24" fill="none" xmlns="http://www.w3.org/2000/svg">
<g clip-path="url(#clip0_9_448)">
<path d="M18.45 9.75C19.2 9 19.8 8.55 20.25 8.1C22.65 5.7 25.05 1.95 23.55 0.450003C22.05 -1.05 18.45 1.35 16.05 3.75C15.6 4.2 15.15 4.8 14.4 5.55L3.9 0.750003C2.85 0.300003 1.65 0.450003 0.9 1.2L0 1.95L9.9 10.5C7.95 12.9 5.85 15.15 4.8 16.5L3.15 15.6C2.4 15.15 1.35 15.15 0.75 15.9L0.3 16.35L4.5 19.5L7.5 23.7L7.95 23.25C8.55 22.65 8.7 21.6 8.25 20.85L7.5 19.2C8.85 18.15 11.1 16.05 13.5 14.1L22.05 24L22.8 23.25C23.55 22.5 23.7 21.3 23.25 20.25L18.45 9.75Z" fill="black"/>
</g>
<defs>
<clipPath id="clip0_9_448">
<rect width="24" height="24" fill="white"/>
</clipPath>
</defs>
</svg>
