<svg width="24" height="24" viewBox="0 0 24 24" fill="none" xmlns="http://www.w3.org/2000/svg">
<path d="M13 10.551V9.873C14.724 9.429 16 7.86 16 6C16 3.794 14.206 2 12 2C9.79398 2 7.99998 3.794 7.99998 6H9.99998C9.99998 4.897 10.897 4 12 4C13.103 4 14 4.897 14 6C14 7.103 13.103 8 12 8C11.448 8 11 8.447 11 9V10.551L2.33498 18.253C2.02498 18.528 1.91798 18.968 2.06498 19.356C2.21198 19.744 2.58498 20 2.99998 20H21C21.415 20 21.787 19.743 21.935 19.355C22.083 18.967 21.975 18.528 21.664 18.252L13 10.551ZM5.62998 18L12 12.338L18.37 18H5.62998Z" fill="black"/>
</svg>
