<svg width="24" height="24" viewBox="0 0 24 24" fill="none" xmlns="http://www.w3.org/2000/svg">
<path d="M23.2035 16.5735L21.5558 8.28413C21.1935 6.35513 19.536 4.89525 17.538 4.8765V4.875H6.50139C4.48576 4.87425 2.80651 6.34275 2.44201 8.28488L0.796886 16.5735C0.766136 16.7197 0.748136 16.8698 0.750011 17.0254C0.748136 18.1849 1.67289 19.125 2.81401 19.125C3.54976 19.125 4.19514 18.7354 4.56189 18.1474L7.27689 14.7577C7.71114 15.168 8.29351 15.4189 8.93364 15.4196C10.2754 15.4189 11.3633 14.3138 11.3633 12.948L12.6758 12.9476C12.6758 14.3123 13.7648 15.4189 15.1065 15.4189C15.7358 15.4189 16.3076 15.1762 16.7396 14.7799L19.4378 18.1474C19.8041 18.7339 20.4503 19.125 21.1841 19.125C22.3253 19.125 23.2511 18.1849 23.25 17.0246C23.2511 16.869 23.2331 16.719 23.2035 16.5735ZM7.84539 7.94475C8.10901 7.67625 8.41014 7.75463 8.51626 8.11912L8.51476 9.29138C8.41014 9.65625 8.10901 9.735 7.84614 9.46688L7.57651 9.19313C7.31289 8.92462 7.31289 8.487 7.57651 8.21813L7.84539 7.94475ZM5.92651 6.65963L7.07851 6.6585C7.43664 6.76425 7.51351 7.07175 7.24914 7.33988L6.98214 7.61288C6.71814 7.88138 6.28614 7.88138 6.02214 7.61288L5.75289 7.3395C5.48889 7.07138 5.56576 6.76425 5.92651 6.65963ZM5.15889 9.46575C4.89451 9.735 4.59226 9.65625 4.48764 9.29138L4.48914 8.11912C4.59226 7.75425 4.89451 7.67588 5.15814 7.94438L5.42664 8.21775C5.69026 8.48663 5.69101 8.92463 5.42664 9.19275L5.15889 9.46575ZM7.07851 10.7516L5.92501 10.7528C5.56576 10.6455 5.48889 10.3399 5.75326 10.0714L6.02251 9.798C6.28614 9.52988 6.71739 9.52988 6.98214 9.79763L7.25026 10.0714C7.51351 10.3399 7.43589 10.6455 7.07851 10.7516ZM8.93176 14.6021C8.03326 14.6029 7.30314 13.8623 7.30314 12.9473C7.30314 12.033 8.03326 11.2913 8.93364 11.2913C9.83176 11.2924 10.5608 12.033 10.5608 12.9469C10.5619 13.8626 9.83176 14.6036 8.93176 14.6021ZM16.5304 7.32488C16.9039 7.32563 17.2073 7.63425 17.2073 8.0145C17.208 8.39663 16.9046 8.706 16.5289 8.70413C16.1539 8.70525 15.8505 8.39663 15.8505 8.01525C15.8509 7.63425 16.1539 7.32563 16.5304 7.32488ZM15.1065 14.6029C14.208 14.6029 13.479 13.8615 13.4783 12.9473C13.479 12.033 14.2076 11.2913 15.1065 11.2913C16.0069 11.292 16.7363 12.033 16.7355 12.9473C16.7355 13.8615 16.0073 14.6021 15.1065 14.6029ZM16.5926 10.7749C16.2176 10.7749 15.9139 10.4651 15.9139 10.0845C15.9135 9.70313 16.2176 9.39413 16.5926 9.39413C16.9676 9.39413 17.2706 9.70313 17.2718 10.0845C17.2718 10.4655 16.9669 10.7749 16.5926 10.7749ZM18.4845 6.636C18.8591 6.63563 19.1629 6.94425 19.1636 7.32563C19.1629 7.70588 18.8591 8.01525 18.4845 8.01525C18.1095 8.01525 17.8061 7.70588 17.8061 7.32563C17.8054 6.94388 18.108 6.6345 18.4845 6.636ZM18.5475 10.0849C18.1733 10.0853 17.8695 9.77663 17.8706 9.39563C17.8695 9.01425 18.1733 8.70488 18.5483 8.706C18.9225 8.70525 19.227 9.0135 19.227 9.3945C19.2266 9.77625 18.9225 10.0853 18.5475 10.0849Z" fill="black"/>
</svg>
