<svg width="20" height="19" viewBox="0 0 20 19" fill="none" xmlns="http://www.w3.org/2000/svg">
<path d="M6.21053 12.9368H13.0914C17.3428 12.9368 17.9894 10.5331 18.7736 7.02733C18.9998 6.01613 19.1129 5.51054 18.8409 5.1737C18.5689 4.83685 18.0476 4.83685 17.0049 4.83685H4.3158" stroke="white" stroke-width="1.2" stroke-linecap="round"/>
<path d="M6.21052 12.9368L3.72721 2.29167C3.51635 1.53254 2.75848 1 1.88906 1H1" stroke="white" stroke-width="1.2" stroke-linecap="round"/>
<path d="M7.04421 12.9368H6.65444C5.36284 12.9368 4.3158 13.9185 4.3158 15.1293C4.3158 15.3311 4.4903 15.4947 4.70557 15.4947H15.2105" stroke="white" stroke-width="1.2" stroke-linecap="round" stroke-linejoin="round"/>
<path d="M8.57901 18.0526C9.36383 18.0526 10.0001 17.48 10.0001 16.7737C10.0001 16.0673 9.36383 15.4947 8.57901 15.4947C7.79418 15.4947 7.15796 16.0673 7.15796 16.7737C7.15796 17.48 7.79418 18.0526 8.57901 18.0526Z" stroke="white" stroke-width="1.2"/>
<path d="M15.2105 18.0526C15.9953 18.0526 16.6315 17.48 16.6315 16.7737C16.6315 16.0673 15.9953 15.4947 15.2105 15.4947C14.4257 15.4947 13.7894 16.0673 13.7894 16.7737C13.7894 17.48 14.4257 18.0526 15.2105 18.0526Z" stroke="white" stroke-width="1.2"/>
</svg>
