<svg width="20" height="22" viewBox="0 0 20 22" fill="none" xmlns="http://www.w3.org/2000/svg">
<path d="M18.7536 5.47998C18.7336 5.47998 18.7036 5.47998 18.6736 5.47998C13.3836 4.94998 8.10361 4.74998 2.87358 5.27998L0.833578 5.47998C0.413578 5.51998 0.0435777 5.21998 0.00357768 4.79998C-0.0364223 4.37998 0.263578 4.01998 0.673578 3.97998L2.71358 3.77998C8.03361 3.23998 13.4236 3.44998 18.8236 3.97998C19.2336 4.01998 19.5336 4.38998 19.4936 4.79998C19.4636 5.18998 19.1336 5.47998 18.7536 5.47998Z" fill="white"/>
<path d="M6.25465 4.47C6.21465 4.47 6.17465 4.47 6.12465 4.46C5.72465 4.39 5.44465 4 5.51465 3.6L5.73465 2.29C5.89465 1.33 6.11465 0 8.44461 0H11.0646C13.4046 0 13.6246 1.38 13.7746 2.3L13.9946 3.6C14.0646 4.01 13.7846 4.4 13.3846 4.46C12.9746 4.53 12.5846 4.25 12.5246 3.85L12.3046 2.55C12.1646 1.68 12.1346 1.51 11.0746 1.51H8.45461C7.39465 1.51 7.37465 1.65 7.22465 2.54L6.99465 3.84C6.93465 4.21 6.61465 4.47 6.25465 4.47Z" fill="white"/>
<path d="M12.9643 21.5001H6.54429C3.05429 21.5001 2.91429 19.5701 2.80429 18.0101L2.15429 7.94007C2.12429 7.53007 2.44429 7.17008 2.85429 7.14008C3.27429 7.12008 3.62429 7.43008 3.65429 7.84008L4.30429 17.9101C4.41429 19.4301 4.45429 20.0001 6.54429 20.0001H12.9643C15.0643 20.0001 15.1043 19.4301 15.2043 17.9101L15.8543 7.84008C15.8843 7.43008 16.2443 7.12008 16.6543 7.14008C17.0643 7.17008 17.3843 7.52007 17.3543 7.94007L16.7043 18.0101C16.5943 19.5701 16.4543 21.5001 12.9643 21.5001Z" fill="white"/>
<path d="M11.414 16H8.084C7.67398 16 7.33398 15.66 7.33398 15.25C7.33398 14.84 7.67398 14.5 8.084 14.5H11.414C11.824 14.5 12.164 14.84 12.164 15.25C12.164 15.66 11.824 16 11.414 16Z" fill="white"/>
<path d="M12.2539 12H7.25391C6.84391 12 6.50391 11.66 6.50391 11.25C6.50391 10.84 6.84391 10.5 7.25391 10.5H12.2539C12.6639 10.5 13.0039 10.84 13.0039 11.25C13.0039 11.66 12.6639 12 12.2539 12Z" fill="white"/>
</svg>
