<svg width="22" height="22" viewBox="0 0 22 22" fill="none" xmlns="http://www.w3.org/2000/svg">
<path d="M10.6562 0C16.543 0 21.3125 4.76953 21.3125 10.6562C21.3125 16.543 16.543 21.3125 10.6562 21.3125C4.76953 21.3125 0 16.543 0 10.6562C0 4.76953 4.76953 0 10.6562 0ZM9.41445 6.17031L12.6586 9.28125H4.8125C4.24102 9.28125 3.78125 9.74102 3.78125 10.3125V11C3.78125 11.5715 4.24102 12.0312 4.8125 12.0312H12.6586L9.41445 15.1422C8.99766 15.5418 8.98906 16.2078 9.39727 16.616L9.86992 17.0844C10.2738 17.4883 10.927 17.4883 11.3266 17.0844L17.0285 11.3867C17.4324 10.9828 17.4324 10.3297 17.0285 9.93008L11.3266 4.22383C10.9227 3.81992 10.2695 3.81992 9.86992 4.22383L9.39727 4.69219C8.98906 5.10469 8.99766 5.7707 9.41445 6.17031Z" fill="white"/>
</svg>
