<svg width="18" height="17" viewBox="0 0 18 17" fill="none" xmlns="http://www.w3.org/2000/svg">
<g clip-path="url(#clip0_8_179)">
<path d="M17.5 7.5H16.5782C16.3032 6.875 15.9032 6.32188 15.4094 5.85938L16 3.5H15C14.0813 3.5 13.2688 3.92188 12.7188 4.57188C12.4813 4.5375 12.2469 4.5 12 4.5H8.00003C5.58128 4.5 3.56565 6.21875 3.10003 8.5H1.75003C1.28753 8.5 0.921903 8.07812 1.01565 7.6C1.0844 7.24375 1.41878 7 1.78128 7H1.81253C1.91565 7 2.00003 6.91563 2.00003 6.8125V6.1875C2.00003 6.08437 1.91565 6 1.81253 6C0.921903 6 0.128153 6.6375 0.0156529 7.51875C-0.121847 8.5875 0.709403 9.5 1.75003 9.5H3.00003C3.00003 11.1313 3.79378 12.5656 5.00003 13.4781V16C5.00003 16.275 5.22503 16.5 5.50003 16.5H7.50003C7.77503 16.5 8.00003 16.275 8.00003 16V14.5H12V16C12 16.275 12.225 16.5 12.5 16.5H14.5C14.775 16.5 15 16.275 15 16V13.4781C15.3688 13.2 15.6969 12.8719 15.9782 12.5H17.5C17.775 12.5 18 12.275 18 12V8C18 7.725 17.775 7.5 17.5 7.5ZM13.5 9.5C13.225 9.5 13 9.275 13 9C13 8.725 13.225 8.5 13.5 8.5C13.775 8.5 14 8.725 14 9C14 9.275 13.775 9.5 13.5 9.5ZM8.00003 3.5H12C12.1688 3.5 12.3344 3.5125 12.4969 3.525C12.4969 3.51562 12.5 3.50938 12.5 3.5C12.5 1.84375 11.1563 0.5 9.50003 0.5C7.84378 0.5 6.50003 1.84375 6.50003 3.5C6.50003 3.56562 6.51565 3.62812 6.51878 3.69375C6.99378 3.57187 7.48753 3.5 8.00003 3.5Z" fill="white"/>
</g>
<defs>
<clipPath id="clip0_8_179">
<rect width="18" height="16" fill="white" transform="translate(0 0.5)"/>
</clipPath>
</defs>
</svg>
