<svg width="18" height="19" viewBox="0 0 18 19" fill="none" xmlns="http://www.w3.org/2000/svg">
<path d="M3.35743 4.15625H14.6074C14.7388 4.15619 14.8701 4.16452 15.0005 4.18121C14.9563 3.87105 14.8498 3.57305 14.6873 3.30518C14.5248 3.03731 14.3098 2.80511 14.0552 2.62259C13.8005 2.44007 13.5116 2.311 13.2057 2.24318C12.8999 2.17535 12.5834 2.17016 12.2755 2.22793L3.02344 3.8075H3.0129C2.43214 3.91855 1.91569 4.24714 1.56903 4.72613C2.09131 4.35464 2.71651 4.15542 3.35743 4.15625Z" fill="white"/>
<path d="M14.6074 5H3.35742C2.76088 5.00065 2.18897 5.23791 1.76715 5.65973C1.34534 6.08154 1.10807 6.65346 1.10742 7.25V14C1.10807 14.5965 1.34534 15.1685 1.76715 15.5903C2.18897 16.0121 2.76088 16.2493 3.35742 16.25H14.6074C15.204 16.2493 15.7759 16.0121 16.1977 15.5903C16.6195 15.1685 16.8568 14.5965 16.8574 14V7.25C16.8568 6.65346 16.6195 6.08154 16.1977 5.65973C15.7759 5.23791 15.204 5.00065 14.6074 5ZM12.9375 11.75C12.715 11.75 12.4975 11.684 12.3125 11.5604C12.1275 11.4368 11.9833 11.2611 11.8981 11.0555C11.813 10.85 11.7907 10.6238 11.8341 10.4055C11.8775 10.1873 11.9847 9.98684 12.142 9.8295C12.2993 9.67217 12.4998 9.56502 12.718 9.52162C12.9363 9.47821 13.1625 9.50049 13.368 9.58564C13.5736 9.67078 13.7493 9.81498 13.8729 9.99998C13.9965 10.185 14.0625 10.4025 14.0625 10.625C14.0625 10.9234 13.944 11.2095 13.733 11.4205C13.522 11.6315 13.2359 11.75 12.9375 11.75Z" fill="white"/>
<path d="M1.125 9.62305V6.125C1.125 5.36316 1.54688 4.08594 3.01113 3.80926C4.25391 3.57617 5.48438 3.57617 5.48438 3.57617C5.48438 3.57617 6.29297 4.13867 5.625 4.13867C4.95703 4.13867 4.97461 5 5.625 5C6.27539 5 5.625 5.82617 5.625 5.82617L3.00586 8.79688L1.125 9.62305Z" fill="white"/>
</svg>
