<svg width="18" height="19" viewBox="0 0 18 19" fill="none" xmlns="http://www.w3.org/2000/svg">
<path d="M9.2775 2.11257L16.0275 4.81254C16.29 4.91754 16.5 5.23254 16.5 5.51004V8.00007C16.5 8.41257 16.1625 8.75007 15.75 8.75007H2.25C1.8375 8.75007 1.5 8.41257 1.5 8.00007V5.51004C1.5 5.23254 1.71 4.91754 1.9725 4.81254L8.7225 2.11257C8.8725 2.05257 9.1275 2.05257 9.2775 2.11257Z" stroke="white" stroke-miterlimit="10" stroke-linecap="round" stroke-linejoin="round"/>
<path d="M16.5 17H1.5V14.75C1.5 14.3375 1.8375 14 2.25 14H15.75C16.1625 14 16.5 14.3375 16.5 14.75V17Z" stroke="white" stroke-miterlimit="10" stroke-linecap="round" stroke-linejoin="round"/>
<path d="M3 14V8.75" stroke="white" stroke-miterlimit="10" stroke-linecap="round" stroke-linejoin="round"/>
<path d="M6 14V8.75" stroke="white" stroke-miterlimit="10" stroke-linecap="round" stroke-linejoin="round"/>
<path d="M9 14V8.75" stroke="white" stroke-miterlimit="10" stroke-linecap="round" stroke-linejoin="round"/>
<path d="M12 14V8.75" stroke="white" stroke-miterlimit="10" stroke-linecap="round" stroke-linejoin="round"/>
<path d="M15 14V8.75" stroke="white" stroke-miterlimit="10" stroke-linecap="round" stroke-linejoin="round"/>
<path d="M9 6.875C9.6213 6.875 10.125 6.37132 10.125 5.75C10.125 5.12868 9.6213 4.625 9 4.625C8.3787 4.625 7.875 5.12868 7.875 5.75C7.875 6.37132 8.3787 6.875 9 6.875Z" stroke="white" stroke-miterlimit="10" stroke-linecap="round" stroke-linejoin="round"/>
</svg>
